<?xml version="1.0" standalone="no"?>
<!DOCTYPE svg PUBLIC "-//W3C//DTD SVG 20010904//EN"
 "http://www.w3.org/TR/2001/REC-SVG-20010904/DTD/svg10.dtd">
<svg version="1.0" xmlns="http://www.w3.org/2000/svg"
 width="1600.000000pt" height="1600.000000pt" viewBox="0 0 1600.000000 1600.000000"
 preserveAspectRatio="xMidYMid meet">
<metadata>
Created by potrace 1.14, written by Peter Selinger 2001-2017
</metadata>
<g transform="translate(0.000000,1600.000000) scale(0.100000,-0.100000)"
fill="#000000" stroke="none">
<path d="M9816 15134 c-3 -9 -6 -33 -6 -53 0 -50 -32 -172 -64 -244 -134 -304
-480 -547 -886 -623 -64 -12 -78 -14 -125 -20 -27 -3 -59 -8 -69 -10 -51 -9
-291 -16 -701 -19 -247 -2 -468 -5 -491 -8 -23 -3 -70 -8 -105 -12 -35 -3 -75
-8 -89 -10 -14 -2 -45 -7 -70 -10 -25 -4 -72 -13 -105 -20 -33 -8 -71 -16 -85
-18 -14 -3 -54 -13 -90 -22 -36 -9 -73 -19 -83 -21 -38 -7 -245 -77 -339 -115
-312 -124 -645 -322 -888 -528 -36 -30 -73 -62 -84 -70 -44 -37 32 67 101 139
40 41 73 80 73 86 0 14 -21 34 -37 34 -22 0 -430 -261 -453 -290 -3 -3 -23
-19 -45 -36 -202 -149 -513 -444 -636 -604 -36 -47 -86 -118 -111 -159 l-44
-75 -70 -16 c-120 -29 -155 -42 -289 -106 -328 -158 -620 -442 -775 -754 -37
-73 -96 -229 -104 -273 -2 -12 -9 -40 -14 -62 -6 -22 -13 -60 -17 -85 -3 -25
-8 -62 -11 -82 -12 -81 -7 -299 11 -413 2 -16 -4 -4 -14 28 -11 32 -22 75 -25
95 -3 21 -8 48 -11 62 -11 45 -12 275 -1 338 15 90 -1 100 -59 38 -92 -100
-278 -409 -310 -516 -4 -14 -13 -38 -21 -55 -40 -89 -103 -369 -120 -535 -3
-25 -7 -56 -9 -70 -2 -14 -7 -52 -10 -85 -4 -33 -8 -71 -10 -85 -2 -14 -6 -50
-10 -80 -4 -30 -8 -66 -10 -80 -2 -14 -7 -45 -10 -70 -12 -89 -55 -267 -83
-350 -36 -104 -77 -187 -153 -307 -53 -83 -108 -183 -122 -223 -5 -14 -8 5
-12 90 -1 19 5 55 12 80 21 66 21 74 10 88 -18 23 -35 12 -83 -50 -86 -114
-139 -252 -164 -428 -9 -66 -6 -395 4 -439 3 -13 -3 -39 -14 -62 -91 -178 -43
-417 141 -694 47 -72 203 -282 218 -295 4 -3 67 -86 142 -185 138 -184 244
-337 318 -458 56 -93 153 -287 149 -299 -2 -5 -10 3 -18 19 -21 41 -127 200
-169 253 -54 69 -194 202 -282 270 -43 33 -82 60 -85 60 -3 0 -24 13 -47 28
-50 34 -195 103 -255 122 -68 21 -71 -6 -4 -37 151 -70 363 -286 508 -518 220
-351 341 -660 385 -981 5 -44 12 -90 14 -104 13 -87 19 -141 18 -180 0 -44
-10 -222 -28 -485 -3 -38 -7 -140 -11 -225 -3 -85 -7 -184 -9 -220 -21 -472
-21 -1514 0 -1855 2 -33 7 -112 10 -175 6 -122 12 -214 20 -295 3 -27 7 -79
10 -115 10 -121 26 -274 30 -278 2 -2 18 25 37 59 38 72 139 180 215 232 28
19 103 56 165 82 118 49 239 106 248 116 3 3 20 14 38 23 40 21 149 114 224
192 160 167 305 398 356 566 24 78 30 128 37 303 3 72 7 141 10 155 3 14 8 36
11 49 9 45 55 122 97 163 64 63 89 70 217 68 41 -1 58 3 67 16 28 39 7 84 -45
97 -39 9 -93 -17 -198 -95 -147 -109 -152 -112 -180 -99 -83 37 -27 195 121
345 47 48 153 132 255 206 96 69 213 157 260 196 264 221 544 589 594 779 12
49 14 145 2 195 -31 134 -30 193 5 261 27 54 6 94 -44 81 -28 -7 -48 -58 -53
-131 -14 -231 -21 -279 -56 -378 -41 -120 -156 -236 -261 -264 -67 -18 -142
-7 -176 25 -43 41 -47 71 -17 115 29 42 28 77 -4 103 -17 13 -27 15 -48 7 -40
-15 -50 -34 -42 -78 23 -129 -47 -338 -166 -491 -89 -115 -221 -234 -398 -360
-306 -217 -375 -278 -431 -377 -42 -76 -67 -173 -68 -270 -1 -90 3 -129 27
-238 11 -52 44 -141 80 -218 54 -113 71 -192 63 -295 -9 -141 -66 -267 -182
-405 -146 -175 -271 -262 -439 -309 -79 -21 -141 -58 -204 -118 -23 -21 -42
-36 -42 -31 0 28 107 352 166 503 34 87 51 143 47 155 -4 10 -21 37 -39 60
-39 51 -70 132 -91 233 -12 61 -15 165 -16 545 0 717 23 1648 43 1700 9 23
161 273 211 345 170 247 448 532 729 746 91 69 230 164 241 164 5 0 9 5 9 10
0 6 4 10 8 10 5 0 47 23 93 51 46 28 146 82 222 120 171 86 181 114 42 113
-97 -1 -162 -13 -265 -49 -125 -44 -183 -74 -384 -198 -11 -7 -93 -67 -183
-134 -90 -67 -163 -120 -163 -118 0 2 41 39 92 82 50 43 98 85 107 93 9 8 32
26 51 40 19 13 37 27 40 31 3 3 59 41 125 84 66 42 132 86 147 96 15 10 30 19
32 19 3 0 30 16 60 35 30 19 60 35 66 35 5 0 10 5 10 10 0 6 4 10 9 10 5 0 38
18 72 40 35 22 71 43 79 47 34 15 221 140 307 205 345 261 529 585 519 918 -2
94 -8 130 -31 198 -35 104 -56 127 -92 104 -11 -7 -13 -17 -28 -107 -8 -48
-25 -115 -29 -115 -10 0 10 311 29 461 8 66 62 343 75 384 5 17 23 77 40 135
17 58 35 114 39 125 5 11 28 68 51 127 45 118 129 293 193 403 38 67 166 264
177 275 3 3 39 50 80 105 41 55 77 102 80 105 3 3 33 39 65 80 32 41 62 77 65
80 3 3 51 64 107 135 191 247 313 457 379 651 30 90 29 85 39 142 l8 44 56 -7
c30 -4 64 -9 75 -11 11 -2 38 -6 61 -9 45 -7 54 -8 180 -29 199 -33 281 -41
445 -40 201 0 330 21 460 74 206 85 314 186 328 305 5 47 4 45 28 49 11 2 62
23 114 46 498 219 896 573 1123 1000 41 77 113 246 122 288 15 65 109 373 130
425 14 35 25 69 25 75 0 7 5 12 10 12 6 0 10 7 10 15 0 7 42 96 93 197 120
236 146 300 183 443 23 86 24 98 28 215 8 233 -50 327 -104 170 -14 -41 -34
-90 -43 -109 -9 -19 -17 -37 -17 -42 0 -18 -152 -249 -164 -249 -2 0 14 44 36
97 42 106 80 234 97 328 6 33 13 71 16 85 21 108 22 469 1 532 -3 7 -7 29 -10
48 -11 71 -40 190 -57 233 -13 30 -53 38 -63 11z m-6938 -9089 c-3 -3 -9 2
-12 12 -6 14 -5 15 5 6 7 -7 10 -15 7 -18z"/>
<path d="M10135 10478 c-213 -43 -445 -144 -702 -304 -59 -38 -112 -72 -118
-77 -5 -4 -40 -29 -76 -55 -105 -74 -117 -83 -198 -149 -43 -33 -106 -93 -142
-131 -67 -73 -126 -110 -221 -139 -242 -71 -431 -41 -502 79 -32 54 -40 118
-22 161 8 18 32 52 55 75 45 48 48 59 26 101 -27 53 -117 66 -193 29 -107 -51
-188 -170 -179 -262 4 -49 12 -60 87 -116 58 -44 14 -110 -87 -130 -191 -38
-370 -131 -503 -262 -82 -81 -150 -174 -150 -204 0 -32 38 -51 68 -35 38 20
55 4 50 -50 -9 -86 -52 -152 -204 -310 -177 -183 -209 -241 -207 -371 1 -73
30 -125 111 -197 33 -29 69 -70 80 -92 52 -98 47 -217 -16 -344 -89 -179 -93
-267 -15 -335 31 -28 42 -31 76 -27 35 5 87 39 87 58 0 4 5 20 12 36 13 33 12
31 32 103 8 30 17 73 19 95 5 33 16 50 69 99 176 166 198 190 223 240 39 81
42 139 11 214 -32 75 -32 97 -5 120 72 59 84 83 49 102 -15 8 -29 7 -56 -6
-65 -31 -84 -115 -46 -205 24 -56 20 -79 -24 -137 -45 -59 -74 -76 -99 -58
-16 11 -17 19 -8 65 11 55 8 62 -54 131 -70 76 -38 235 84 422 81 124 249 259
376 302 96 32 179 11 213 -56 21 -41 11 -86 -30 -134 -45 -53 -64 -93 -60
-129 11 -99 183 -55 274 71 48 68 61 117 67 254 6 149 25 219 84 304 85 124
219 205 399 241 11 2 15 -7 17 -30 4 -86 82 -191 170 -230 l41 -18 -57 -47
c-77 -65 -113 -105 -297 -325 -87 -104 -174 -206 -192 -225 -73 -75 -83 -123
-38 -190 14 -22 26 -41 26 -43 0 -3 86 -147 190 -321 105 -175 190 -319 190
-321 0 -2 20 -38 45 -79 25 -42 45 -78 45 -80 0 -3 23 -43 50 -91 28 -48 50
-88 50 -90 0 -17 192 -338 287 -478 40 -59 73 -111 73 -114 0 -3 13 -18 29
-34 30 -29 93 -51 146 -52 69 -1 655 38 725 48 14 2 57 7 95 10 39 3 81 8 95
10 14 2 50 7 80 10 30 4 82 10 115 15 33 5 85 12 115 15 30 3 80 10 110 15 30
5 75 12 100 15 112 15 309 70 382 106 45 23 138 115 243 239 44 52 82 97 85
100 3 3 21 25 40 50 19 25 38 50 43 55 135 163 654 939 708 1061 27 59 31 122
10 164 -51 103 -128 251 -154 295 -17 28 -35 59 -41 70 -9 17 -47 78 -196 315
-138 219 -363 594 -419 695 -62 112 -175 295 -192 311 -28 25 -115 23 -207 -5
-40 -12 -85 -24 -100 -26 -15 -2 -38 -6 -52 -9 -14 -3 -83 -17 -155 -32 -163
-32 -317 -71 -373 -96 -24 -10 -44 -18 -45 -18 -1 0 -2 33 -3 74 -1 60 -6 82
-30 126 -33 61 -88 111 -164 150 -72 36 -117 40 -225 18z"/>
<path d="M8676 9895 c-35 -38 -34 -79 4 -116 20 -21 36 -28 53 -25 55 10 88
49 80 96 -5 35 -33 60 -75 67 -31 5 -41 1 -62 -22z"/>
<path d="M7532 9634 c-44 -31 -18 -103 36 -98 37 2 64 51 44 80 -6 10 -45 34
-54 34 -2 0 -14 -7 -26 -16z"/>
<path d="M7690 8658 c-11 -12 -20 -32 -20 -45 0 -56 83 -85 114 -41 32 46 13
93 -41 103 -25 4 -37 0 -53 -17z"/>
<path d="M7275 7188 c-49 -29 -54 -41 -59 -138 -9 -171 -40 -262 -115 -333
-65 -61 -84 -115 -54 -155 23 -31 83 -48 137 -38 47 9 77 47 110 142 15 44 33
93 41 109 73 165 87 284 45 370 -21 42 -30 50 -55 52 -16 2 -39 -2 -50 -9z"/>
<path d="M6549 6083 c-71 -59 -82 -76 -114 -187 -14 -49 -37 -108 -52 -133
-30 -52 -88 -115 -122 -133 -32 -17 -88 -4 -106 24 -20 30 -9 60 39 105 40 38
47 76 19 97 -40 30 -85 6 -64 -34 5 -9 7 -25 6 -35 -5 -29 -93 -152 -144 -202
-81 -78 -128 -100 -245 -110 -75 -7 -123 -23 -144 -48 -17 -20 -12 -46 10 -61
15 -9 23 -5 45 22 45 53 88 54 203 1 93 -43 98 -44 200 -44 97 0 110 2 170 31
100 48 170 122 208 220 21 52 29 102 37 214 11 173 33 220 107 241 32 8 39 14
36 32 -5 34 -48 34 -89 0z"/>
<path d="M4855 5175 c-25 -24 -32 -65 -19 -100 7 -17 52 -42 72 -39 6 1 20 2
30 3 21 1 52 50 52 83 -1 37 -31 68 -73 73 -31 4 -43 0 -62 -20z"/>
<path d="M4138 4408 c-27 -22 -30 -52 -7 -76 23 -25 54 -22 77 6 20 26 -8 82
-43 82 -6 0 -18 -6 -27 -12z"/>
<path d="M7488 3035 c-1 -1 -46 -5 -98 -8 -236 -14 -419 -77 -627 -214 -48
-31 -109 -63 -136 -70 -43 -11 -54 -10 -100 7 -83 31 -102 31 -127 5 -32 -34
-22 -57 34 -83 103 -50 236 -25 421 79 216 121 285 147 378 143 56 -2 124 -28
151 -56 79 -85 36 -212 -95 -278 -86 -44 -325 -98 -519 -117 -106 -10 -585
-11 -740 -1 -465 30 -820 29 -1040 -3 -109 -15 -131 -20 -240 -45 -238 -56
-632 -211 -750 -295 -73 -53 -251 -194 -300 -239 -33 -30 -34 -31 -5 -14 361
216 828 389 1250 463 33 6 69 13 80 15 11 2 41 6 66 10 25 4 57 9 70 11 96 15
173 23 424 41 59 4 510 4 580 -1 200 -12 263 -16 285 -20 14 -2 54 -6 90 -10
36 -3 81 -8 100 -10 103 -13 128 -16 163 -20 22 -2 51 -6 65 -9 15 -3 45 -8
67 -11 22 -3 51 -7 65 -10 14 -2 43 -7 65 -10 22 -3 56 -8 75 -12 19 -3 42 -7
50 -8 18 -2 72 -12 165 -30 39 -8 84 -16 100 -19 34 -7 208 -43 360 -76 55
-12 108 -23 119 -25 10 -3 80 -18 155 -36 319 -73 437 -73 552 0 54 34 66 64
38 92 -21 21 -53 23 -114 9 -80 -19 -153 -25 -285 -24 -153 1 -272 20 -397 64
-175 61 -248 113 -224 158 27 50 188 120 333 146 82 14 316 15 383 1 17 -4 41
-8 55 -10 14 -2 25 -4 25 -5 0 -1 11 -3 25 -6 66 -12 202 -51 399 -116 119
-40 218 -72 221 -73 78 -20 190 -57 258 -86 24 -11 80 -28 125 -40 106 -27
114 -29 167 -35 25 -4 64 -9 86 -14 47 -8 339 -5 397 4 20 3 52 8 70 11 190
27 343 66 624 162 121 41 150 47 233 49 61 2 130 -4 193 -16 201 -39 270 -43
368 -23 54 11 167 69 155 80 -2 2 -24 -1 -47 -8 -79 -22 -174 -13 -319 31
-214 65 -265 74 -410 74 -154 1 -208 -10 -435 -86 -208 -69 -406 -107 -536
-102 -366 12 -704 104 -1194 324 -38 17 -86 38 -105 47 -19 8 -53 23 -75 33
-368 161 -662 260 -855 286 -25 3 -54 8 -65 10 -11 2 -65 6 -120 10 -55 3
-105 7 -112 9 -6 2 -13 2 -15 0z"/>
<path d="M6070 2800 c-42 -42 -11 -113 50 -113 22 0 39 7 52 22 23 30 23 52
-3 85 -25 32 -70 35 -99 6z"/>
<path d="M10199 2807 c-58 -45 -39 -137 31 -152 80 -18 134 82 75 140 -27 27
-79 33 -106 12z"/>
<path d="M9707 2602 c-25 -27 -22 -78 5 -96 12 -9 30 -16 39 -16 27 0 69 39
69 66 0 54 -78 85 -113 46z"/>
</g>
</svg>
